<?xml version="1.0" encoding="UTF-8"?>
<svg id="Layer_2" data-name="Layer 2" xmlns="http://www.w3.org/2000/svg" xmlns:xlink="http://www.w3.org/1999/xlink" viewBox="0 0 137 22.04">
  <defs>
    <style>
      .cls-1 {
        fill: url(#linear-gradient);
      }

      .cls-1, .cls-2, .cls-3, .cls-4, .cls-5, .cls-6, .cls-7, .cls-8, .cls-9, .cls-10, .cls-11, .cls-12 {
        stroke-width: 0px;
      }

      .cls-2 {
        fill: url(#linear-gradient-6);
      }

      .cls-3 {
        fill: url(#linear-gradient-5);
      }

      .cls-4 {
        fill: #1e384d;
      }

      .cls-5 {
        fill: url(#linear-gradient-2);
      }

      .cls-6 {
        fill: url(#linear-gradient-7);
      }

      .cls-7 {
        fill: url(#linear-gradient-3);
      }

      .cls-8 {
        fill: url(#linear-gradient-9);
      }

      .cls-9 {
        fill: url(#linear-gradient-8);
      }

      .cls-10 {
        fill: #035642;
      }

      .cls-11 {
        fill: url(#linear-gradient-10);
      }

      .cls-12 {
        fill: url(#linear-gradient-4);
      }
    </style>
    <linearGradient id="linear-gradient" x1="115.87" y1="8.26" x2="123.34" y2="8.26" gradientUnits="userSpaceOnUse">
      <stop offset="0" stop-color="#f3d57f"/>
      <stop offset=".38" stop-color="#8c542e"/>
      <stop offset=".6" stop-color="#f3d57f"/>
      <stop offset=".69" stop-color="#fdfcf9"/>
      <stop offset=".7" stop-color="#fbf7ec"/>
      <stop offset=".73" stop-color="#f8e8bd"/>
      <stop offset=".76" stop-color="#f5de9b"/>
      <stop offset=".78" stop-color="#f3d786"/>
      <stop offset=".79" stop-color="#f3d57f"/>
      <stop offset=".99" stop-color="#c59541"/>
      <stop offset="1" stop-color="#c3913e"/>
    </linearGradient>
    <linearGradient id="linear-gradient-2" x1="114.95" y1="4.39" x2="119.28" y2="1.89" gradientUnits="userSpaceOnUse">
      <stop offset="0" stop-color="#035643"/>
      <stop offset="1" stop-color="#004952"/>
    </linearGradient>
    <linearGradient id="linear-gradient-3" x1="121.57" y1=".5" x2="121.43" y2="16.14" gradientUnits="userSpaceOnUse">
      <stop offset="0" stop-color="#065441"/>
      <stop offset=".02" stop-color="#0b5145"/>
      <stop offset=".07" stop-color="#124e4b"/>
      <stop offset=".19" stop-color="#154d4d"/>
      <stop offset=".34" stop-color="#104c4e"/>
      <stop offset=".51" stop-color="#034951"/>
      <stop offset=".54" stop-color="#004952"/>
      <stop offset="1" stop-color="#035642"/>
    </linearGradient>
    <linearGradient id="linear-gradient-4" x1="119.61" y1=".05" x2="119.61" y2="9.88" gradientUnits="userSpaceOnUse">
      <stop offset="0" stop-color="#035643"/>
      <stop offset=".59" stop-color="#015049"/>
      <stop offset="1" stop-color="#004952"/>
    </linearGradient>
    <linearGradient id="linear-gradient-5" x1="125.39" y1="8.16" x2="137" y2="8.16" xlink:href="#linear-gradient"/>
    <linearGradient id="linear-gradient-6" x1="127.18" y1="1.51" x2="129.58" y2="3.9" xlink:href="#linear-gradient-2"/>
    <linearGradient id="linear-gradient-7" x1="139" y1="14.77" x2="131.1" y2="14.77" xlink:href="#linear-gradient-4"/>
    <linearGradient id="linear-gradient-8" x1="131.23" y1="16.51" x2="131.23" y2="-.88" xlink:href="#linear-gradient-3"/>
    <linearGradient id="linear-gradient-9" x1="134.22" y1="3.91" x2="127.23" y2="15.59" xlink:href="#linear-gradient-4"/>
    <linearGradient id="linear-gradient-10" x1="133.03" y1="11.25" x2="133.03" y2="11.25" gradientUnits="userSpaceOnUse">
      <stop offset="0" stop-color="#cb141e"/>
      <stop offset=".31" stop-color="#2d0000"/>
      <stop offset=".4" stop-color="#300000"/>
      <stop offset=".48" stop-color="#3a0000"/>
      <stop offset=".55" stop-color="#4b0000"/>
      <stop offset=".62" stop-color="#630000"/>
      <stop offset=".68" stop-color="#820000"/>
      <stop offset=".71" stop-color="#930000"/>
      <stop offset=".72" stop-color="#910000"/>
      <stop offset=".79" stop-color="#760000"/>
      <stop offset=".86" stop-color="#620000"/>
      <stop offset=".93" stop-color="#560000"/>
      <stop offset="1" stop-color="#530000"/>
    </linearGradient>
  </defs>
  <g id="Layer_1-2" data-name="Layer 1">
    <g>
      <g>
        <path class="cls-10" d="m95.77,6.86c.21.34.48.61.81.81.33.2.7.35,1.1.45.4.09.79.18,1.18.25.27.05.53.1.78.16.25.06.47.13.66.21.19.08.34.19.45.33.11.13.16.3.16.51,0,.3-.14.54-.42.71-.28.17-.67.25-1.18.25-1.14,0-1.75-.43-1.82-1.3h-2.23c0,.95.34,1.71,1.01,2.26.67.56,1.68.83,3.03.83s2.3-.26,2.93-.78.95-1.22.95-2.09c0-.55-.11-.98-.34-1.32-.23-.33-.52-.59-.87-.78-.35-.19-.74-.34-1.17-.44s-.83-.19-1.23-.28c-.25-.06-.5-.12-.73-.18-.23-.06-.43-.14-.61-.23-.17-.09-.31-.21-.42-.35-.1-.14-.16-.3-.16-.5,0-.32.13-.57.38-.74.25-.17.61-.26,1.07-.26.57,0,.98.12,1.23.35.25.24.38.55.38.95h2.23c-.02-.97-.34-1.73-.98-2.28-.63-.55-1.56-.83-2.8-.83s-2.12.25-2.76.76-.97,1.23-.97,2.18c0,.56.1,1,.31,1.34Zm-3.03,4.47c.71-.67,1.06-1.63,1.06-2.88V2.72h-2.18v5.54c0,.63-.17,1.12-.51,1.48-.34.35-.81.53-1.41.53s-1.09-.18-1.44-.53c-.34-.35-.52-.85-.52-1.48V2.72h-2.18v5.73c0,1.25.36,2.22,1.07,2.88.72.67,1.73,1,3.05,1s2.33-.33,3.04-1Zm-17.77-1.98c.26.59.61,1.11,1.05,1.56s.96.79,1.56,1.05c.6.25,1.24.38,1.92.38.61,0,1.19-.09,1.73-.28s1.02-.45,1.44-.79c.42-.34.77-.74,1.05-1.22.28-.47.48-.99.58-1.56h-2.42c-.16.51-.45.91-.88,1.22s-.92.45-1.48.45c-.37,0-.71-.07-1.03-.21s-.6-.33-.84-.58c-.24-.24-.43-.53-.57-.86-.14-.33-.2-.68-.2-1.06s.07-.71.2-1.04c.14-.33.33-.61.57-.86.24-.24.52-.44.84-.58s.66-.21,1.03-.21c.57,0,1.06.15,1.48.45s.72.71.88,1.22h2.42c-.1-.57-.3-1.08-.58-1.56-.28-.47-.63-.88-1.05-1.22-.42-.34-.9-.6-1.44-.79-.54-.19-1.11-.28-1.73-.28-.68,0-1.32.13-1.92.38-.6.25-1.12.6-1.56,1.05s-.79.96-1.05,1.56c-.26.59-.39,1.23-.39,1.89s.13,1.3.39,1.89Zm-4.05,2.84h2.18V2.72h-2.18v9.47Zm-6.29,0h2.18v-7.58h3.03v-1.89h-8.22v1.89h3.01v7.58Zm-9.49-4.91v-2.49h1.77c.54,0,.95.11,1.24.33.29.22.44.53.44.91s-.15.69-.44.91c-.29.22-.71.33-1.24.33h-1.77Zm-2.18-4.57v9.47h2.18v-3.2h1.34l1.87,3.2h2.56l-2.08-3.48c.65-.23,1.15-.58,1.51-1.06.36-.48.54-1.08.54-1.81,0-1-.34-1.77-1.03-2.31-.68-.54-1.65-.81-2.89-.81h-4Zm-7.2,6.08l1.37-3.72,1.36,3.72h-2.73Zm-3.45,3.39h2.22l.61-1.67h3.96l.62,1.67h2.22l-3.48-9.47h-2.67l-3.48,9.47Zm-11.51,0h2.18v-6.76l2.02,4.95h2.09l2.02-4.95v6.76h2.18V2.72h-3.08l-2.16,5.19-2.16-5.19h-3.08v9.47Zm-4.16,0h2.18V2.72h-2.18v9.47Z"/>
        <path class="cls-10" d="m100.76,17.18h1.75v2.01c-.38.15-.84.22-1.38.22-.84,0-1.47-.22-1.91-.65-.43-.43-.65-1.08-.65-1.94,0-.79.23-1.42.68-1.88.46-.47,1.07-.7,1.85-.7.55,0,1.08.11,1.59.34l.17-.36c-.51-.23-1.09-.34-1.73-.34-.59,0-1.12.12-1.58.37-.46.25-.81.59-1.06,1.04s-.37.97-.37,1.55c0,.93.25,1.65.74,2.16.5.51,1.21.76,2.14.76.71,0,1.35-.12,1.92-.35v-2.61h-2.17v.38Zm-9.58-3.21h-.4v3.73c0,.42.01.87.04,1.34h-.02l-3.49-5.07h-.41v5.72h.4v-3.71c0-.31-.02-.76-.05-1.37h.03l3.49,5.08h.42v-5.72Zm-11.54,5.72v-5.72h-.41v5.72h.41Zm-7.67-5.72h-.4v3.73c0,.42.01.87.04,1.34h-.02l-3.49-5.07h-.41v5.72h.4v-3.71c0-.31-.02-.76-.05-1.37h.03l3.49,5.08h.42v-5.72Zm-14.37.36h.98c.61,0,1.05.1,1.31.3.27.2.4.51.4.95s-.14.74-.41.95c-.27.21-.66.32-1.16.32h-1.12v-2.52Zm1.46,2.87l1.52,2.49h.49l-1.6-2.6c.42-.11.74-.3.95-.57.21-.26.31-.59.31-.97,0-.53-.17-.92-.52-1.18-.35-.26-.89-.39-1.62-.39h-1.4v5.72h.41v-2.49h1.46Zm-11-1.94c.09-.2.17-.43.24-.68.09.29.17.51.24.67l.8,2.06h-2.11l.83-2.05Zm2.24,4.43h.46l-2.32-5.74h-.26l-2.37,5.74h.46l.82-2.02h2.39l.82,2.02Zm-10.58-.37h-2.81v-2.45h2.65v-.37h-2.65v-2.16h2.81v-.37h-3.22v5.72h3.22v-.37Zm-9.83.37v-.38h-2.81v-5.34h-.41v5.72h3.22Z"/>
        <path class="cls-10" d="m9.58,12.4c.26-.03.43-.09.56-.19.11-.09.16-.29.17-.33-.14.08-.97.55-.73.53Z"/>
        <path class="cls-10" d="m11.33,11.53l.16.47s0,.08.1.29c0,0,.49-.29,1.02-.5.04-.02.08-.04.12-.06V.54h-4.87v11.78c.25.11.43.2.47.22.13-.04.31-.07.57-.03l-.03-.04s-.08-.37.04-.58c.12-.2.24-.35.29-.42s.21-.33.22-.4c0-.07.04-.2.02-.3-.02-.11.23-.32.23-.32.07-.03.22-.15.22-.15l.08-.11s-.2.04-.34.18c0,0,0-.21.12-.32s.12-.13.12-.13c0,0-.15-.07-.16-.2-.01-.13.07-.23.08-.32.01-.09.01-.13.01-.13,0,0,.1.11.14.15.03.05.07.1.08.13.01.03.03.12.03.12,0,0,.14-.08.28-.07.14.01.17.01.17.01,0,0,0-.17.07-.26.06-.09.1-.14.1-.14,0,0,.11.12.16.21.04.09.09.17.09.25,0,.08,0,.14-.05.24-.05.11-.07.14.01.25.08.11.19.34.22.5.03.17.11.41.17.66.01.06.03.12.04.19"/>
        <polygon class="cls-10" points="12.73 12.27 12.73 12.26 12.71 12.26 12.73 12.27"/>
        <path class="cls-10" d="m11.9,12.85v-.03s-.31-.53-.31-.53c.1.23.3.62.71,1.23.25.38.37.69.43.96,0,0-.05-.36-.17-.6-.07-.15-.2-.33-.2-.33l-.08-.09s-.08-.13-.22-.35c-.05-.08-.11-.17-.17-.27Z"/>
        <path class="cls-10" d="m12.73,16.47v-1.19c-.02.07-.05.11-.05.11,0,0-.1.58-.05.83.01.05.05.14.09.26Z"/>
        <path class="cls-10" d="m10.13,17.63c.39.51.92.82.92.82h.01c.04-.06.08-.13.11-.19.09-.16-.01-.26-.06-.39-.04-.13-.14-.78-.16-.81-.02-.02-.67-1.24-.67-1.24l-.82-.26s-.21.33-.2.51c.01.18.46,1.05.85,1.56Z"/>
        <path class="cls-10" d="m12.5,18.71l.23-.19v-.84c-.09-.14-.2-.31-.29-.49-.21-.4-.41-1.63-.41-1.63l-.89.45s.06.15.08.29c.01.15.17.59.39.95.22.36.07.39.03.61-.05.21-.03.39.04.73.07.34-.21.41-.21.41,0,0-.21-.04-.37-.1-.06,0-.2-.01-.3-.02-.14-.01-.21-.23-.28-.35-.07-.12-.17-.15-.17-.15,0,0-.34-.68-.92-1.11-.58-.43-.5-.75-.5-.75l-1.07-1.27v6.47h4.87v-2.83l-.23-.18Zm-3.73-.9c0,.17-.18.16-.18.16v.19s-.05.25-.05.25l-.53-.35.05-.03.21-.24s.08-.18.14-.27c.06-.09.04-.14-.02-.39-.06-.26.05-1.13.05-1.13,0,0,.5.48.44.53-.05.05-.13.22-.13.22,0,0,.01.9.02,1.07Z"/>
        <path class="cls-10" d="m8.12,12.66l-.26.13v.05c.08.02.13.05.13.05,0,0,.02-.12.13-.22Z"/>
        <polygon class="cls-10" points="10.31 11.87 10.33 11.86 10.31 11.86 10.31 11.87"/>
        <path class="cls-10" d="m17.97,4.91l.72-1.34.74-1.37-3.52,5.41.82-2.14-1.51,2.66s1.01-2.02,1.15-2.41c.13-.39.4-1.21.4-1.21,0,0,.07-.39.01-.51s-2.19,4.62-2.19,4.62c0,0,.6-1.34.61-1.78s-.16-.51-.16-.51c0,0-.19,1.76-1.01,2.61-.82.85-.51,1.61-.56,1.86-.05.24-.08.67-.71.91-.63.24-1.19.58-1.19.58l.36.61v.03c.08.12.14.23.2.31.16.25.25.4.25.4l.48-.08s.14-.25-.07-.43c-.21-.18-.34-.29-.37-.32-.03-.04-.1-.17-.1-.17,0,0,.19.16.58.27.39.11.86.18.86.18,0,0-.05-.33-.04-.38.01-.05.08-.16-.01-.21-.09-.05-.38-.16-.6-.19-.22-.03-.24-.07-.24-.07l1.52.22s-.06-.29-.21-.41c-.15-.12-.43-.2-.43-.2,0,0-.14-.05-.17-.08-.03-.03-.07-.07-.07-.07,0,0,.66.23,1.07.28s.85.25.85.25c0,0-.04-.25-.24-.46-.2-.21-.14-.2-.34-.28-.2-.08-.58-.21-.58-.21l-.15-.09,2,.57s-.13-.46-.34-.64-1.01-.35-1.01-.35c0,0,1.35.25,1.5.23.15-.02.4-.07.4-.07,0,0-.38-.48-.47-.52-.09-.04-.38,0-.61-.02-.22-.02-.78-.12-.78-.12,0,0,.54.06.97.02.43-.04.76-.17,1-.48.24-.3.41-.57.41-.57,0,0,.07-.11-.07-.15s-.27-.05-.27-.05c0,0-.05-.02-.21.12s-.52.37-.82.45c-.3.08-.37.11-.43.11-.05,0-.29.02-.29.02,0,0,.95-.23,1.19-.46.24-.22.7-.55.96-1.08s.52-1.02.52-1.02c0,0-.34.1-.57.41s-.71.95-.99,1.14c-.28.19-.37.28-.53.33-.16.06-.22.07-.22.07,0,0,.73-.43.87-.65.14-.22.6-.68.88-1.19.28-.51.91-1.85.91-1.85,0,0-.52.39-.74.76-.22.37-1.17,1.64-1.17,1.64l-.43.42s1.07-1.29,1.21-1.65c.14-.37.96-1.72.96-1.72Z"/>
        <path class="cls-10" d="m1.58,5.08l-.78-1.32-.8-1.35,3.76,5.33-.91-2.12,1.62,2.62s-1.1-2-1.25-2.39c-.15-.39-.45-1.2-.45-1.2,0,0-.09-.39-.03-.51.06-.12,2.38,4.58,2.38,4.58,0,0-.66-1.33-.68-1.78-.03-.45.14-.52.14-.52,0,0,.26,1.77,1.12,2.59.86.83.57,1.61.63,1.85.06.24.11.68.75.89.64.22,1.76.75,1.76.75,0,0-.43.15-.56.22-.07.04-.21.14-.26.19-.1.1-.19.28-.25.37-.15.26-.24.42-.24.42l-.49-.06s-.15-.24.05-.43c.2-.19.33-.31.36-.34.03-.04.09-.18.09-.18,0,0-.19.17-.58.29-.39.13-.86.21-.86.21,0,0,.04-.34.02-.39s-.09-.16,0-.21c.09-.06.37-.17.6-.21.22-.04.24-.08.24-.08l-1.52.28s.05-.3.2-.42c.15-.13.43-.22.43-.22,0,0,.14-.06.17-.09.03-.03.07-.08.07-.08,0,0-.66.26-1.07.33-.41.06-.85.29-.85.29,0,0,.03-.26.23-.48.2-.22.13-.2.33-.3s.58-.24.58-.24l.14-.09-1.99.65s.12-.47.32-.66c.2-.18,1-.39,1-.39,0,0-1.35.31-1.5.29-.15-.02-.41-.05-.41-.05,0,0,.36-.5.45-.54.09-.04.39-.02.61-.05.22-.03.78-.15.78-.15,0,0-.54.09-.97.06s-.78-.15-1.03-.44-.44-.56-.44-.56c0,0-.08-.11.07-.15.15-.04.27-.06.27-.06,0,0,.05-.02.22.11.17.14.54.35.85.42.31.07.38.1.43.09.05,0,.3.01.3.01,0,0-.97-.2-1.22-.41-.25-.22-.73-.53-1.01-1.05-.29-.53-.56-1.01-.56-1.01,0,0,.35.08.6.39.25.31.75.93,1.04,1.11.29.18.38.27.55.32.17.05.22.06.22.06,0,0-.75-.41-.91-.62-.15-.22-.63-.66-.93-1.16-.31-.5-.99-1.84-.99-1.84,0,0,.54.37.77.74.23.37,1.25,1.61,1.25,1.61l.45.41s-1.13-1.26-1.29-1.62c-.16-.37-1.04-1.7-1.04-1.7Z"/>
      </g>
      <rect class="cls-4" x="109.85" y=".23" width=".53" height="21.81"/>
      <g>
        <path class="cls-1" d="m123.34,16.32h-3.94V4.19h-3.53V1.35l.12-.02,7.35-1.13v16.13Zm-3.66-.28h3.38V.52l-6.91,1.06v2.33h3.53v12.13Z"/>
        <g>
          <path class="cls-5" d="m116.01,1.47v2.58h3.53c-.09-1.8-2.14-2.55-3.53-2.58Z"/>
          <path class="cls-7" d="m123.2.36s-3.37,10.89-3.54,15.83h3.54V.36Z"/>
          <path class="cls-12" d="m116.01,1.46h0c1.31.26,3.44.77,3.53,2.59v12.13h.12c.34-5.65,3.31-7.39,3.54-15.83l-7.19,1.11Z"/>
        </g>
      </g>
      <g>
        <path class="cls-3" d="m137,16.32h-11.35v-2.59l.07-.07,5.05-5.31c.63-.72,1.1-1.38,1.4-1.95.29-.56.44-1.04.44-1.44,0-.57-.14-1.03-.43-1.37-.05-.05-.1-.11-.17-.16-.27-.22-.64-.33-1.11-.33-.51,0-.89.21-1.18.64-.3.44-.45,1.02-.45,1.71v.14h-3.82l-.06-.2c-.04-1.49.46-2.78,1.47-3.82,1.01-1.04,2.38-1.57,4.04-1.57.17,0,.34,0,.5.02,1.53.08,2.76.51,3.66,1.3,1,.88,1.51,2.09,1.51,3.61,0,1.02-.27,1.94-.8,2.73-.52.77-1.49,1.93-2.87,3.44l-1.98,2.12h6.08v3.1Zm-11.07-.28h10.79v-2.54h-6.12l-.12-.23,2.21-2.36c1.38-1.5,2.34-2.65,2.85-3.4.5-.74.75-1.61.75-2.57,0-1.44-.48-2.58-1.41-3.4-.85-.74-2.02-1.16-3.49-1.23-.16,0-.32-.02-.49-.02-1.59,0-2.88.5-3.84,1.48-.94.97-1.41,2.16-1.4,3.55h3.33c.02-.69.19-1.27.49-1.73.34-.51.82-.76,1.41-.76.53,0,.96.13,1.28.39.09.07.15.13.21.2.33.39.49.91.49,1.55,0,.45-.16.98-.47,1.57-.31.59-.79,1.26-1.44,2l-5.05,5.31v2.19Z"/>
        <g>
          <path class="cls-2" d="m131.4.16c-.16,0-.32-.02-.49-.02-1.64,0-2.95.51-3.94,1.53-.99,1.02-1.47,2.26-1.43,3.72l.02.07h.05c1.2-.25,2.71-.9,3.45-1.49,1.35-1.07,2.04-2.46,2.35-3.81Z"/>
          <path class="cls-6" d="m136.86,16.18v-2.82c-2.13.96-4.22,2.06-6.27,2.82h6.27Z"/>
          <path class="cls-9" d="m130.69,13.36l-.03-.07,2.14-2.29c1.39-1.51,2.34-2.65,2.86-3.42.52-.77.78-1.65.78-2.65,0-1.48-.49-2.65-1.46-3.51-.88-.77-2.07-1.19-3.57-1.27-.31,1.35-1,2.74-2.35,3.81-.73.58-2.25,1.24-3.45,1.49h3.53c0-.72.16-1.32.47-1.79.31-.47.75-.7,1.3-.7.5,0,.9.12,1.19.36,1.49.75,1.82,2.31,1.84,3.03.14,5.18-4.25,7.04-8.12,7.41l-.03.03v2.39h4.8c2.05-.76,4.13-1.85,6.27-2.82h0s-6.17,0-6.17,0Z"/>
          <path class="cls-8" d="m133.94,6.35c-.02-.72-.35-2.28-1.84-3.03.07.06.13.11.19.18.31.36.46.85.46,1.46,0,.43-.15.93-.46,1.51-.3.58-.78,1.24-1.42,1.98l-5.05,5.31c3.87-.37,8.25-2.23,8.12-7.41Z"/>
        </g>
      </g>
      <path class="cls-11" d="m133.03,11.26s0-.02,0-.03c0,.01,0,.02,0,.03,0,0,0,0,0,0Z"/>
      <path class="cls-4" d="m136.66,20.7c0-1.1-1.61-.75-1.61-1.38,0-.26.18-.38.43-.37.27,0,.44.17.45.37h.69c-.04-.57-.48-.89-1.12-.89s-1.1.34-1.1.91c0,1.14,1.61.73,1.61,1.4,0,.22-.18.38-.47.38s-.46-.17-.48-.42h-.67c0,.59.51.93,1.16.93.71,0,1.11-.44,1.11-.94Zm-5.96-2.23v3.13h.63v-1.22h.3l.69,1.22h.73l-.75-1.27c.5-.13.71-.52.71-.9,0-.52-.38-.96-1.13-.96h-1.18Zm1.66.97c0,.28-.16.47-.51.47h-.52v-.92h.52c.35,0,.51.17.51.45Zm-4.02,1.06h-.91l.45-1.31.45,1.31Zm.38,1.1h.66l-1.13-3.14h-.73l-1.13,3.14h.66l.21-.6h1.25l.21.6Zm-3.59-3.14h-1.82v3.14h1.82v-.51h-1.19v-.83h1.05v-.5h-1.05v-.79h1.19v-.51Zm-4.76,2.05v1.09h.63v-1.09l1.06-2.04h-.7l-.67,1.43-.67-1.43h-.71l1.06,2.04Z"/>
    </g>
  </g>
</svg>