<svg width="29" height="28" viewBox="0 0 29 28" fill="none" xmlns="http://www.w3.org/2000/svg">
<path d="M0.720947 13.4235C0.79275 12.9206 0.853505 12.4125 0.936354 11.9096C1.87531 6.48918 6.46513 1.99509 12.0989 0.978756C15.2858 0.401776 18.3401 0.7829 21.2454 2.18036C21.8364 2.4662 21.9523 3.11199 21.4994 3.509C21.2288 3.7472 20.8864 3.77896 20.4997 3.59369C19.5773 3.14905 18.6163 2.79439 17.6 2.59324C13.5515 1.80452 9.90612 2.64088 6.74682 5.19759C4.38839 7.1085 2.97444 9.56993 2.52153 12.5025C2.05205 15.5303 2.72037 18.3358 4.48228 20.8925C4.50438 20.9295 4.53199 20.9613 4.63141 20.9878C4.63141 20.7231 4.61484 20.4584 4.63694 20.1938C4.66455 19.8232 4.96833 19.5321 5.34391 19.4897C5.73054 19.4474 6.09508 19.6485 6.22211 19.9926C6.2663 20.1091 6.28287 20.2361 6.28287 20.3579C6.28839 21.3001 6.28839 22.2476 6.28287 23.1898C6.27734 23.7456 5.94595 24.0579 5.37153 24.0579C4.38839 24.0579 3.39973 24.0579 2.41659 24.0579C1.87531 24.0579 1.50525 23.735 1.49973 23.2745C1.4942 22.814 1.87531 22.4805 2.40554 22.4699C2.79217 22.4646 3.17327 22.4699 3.59856 22.4699C3.54885 22.3852 3.51571 22.327 3.47705 22.2741C1.87531 20.1991 0.969494 17.87 0.765133 15.2921C0.75961 15.218 0.737517 15.1386 0.720947 15.0645C0.720947 14.5192 0.720947 13.9687 0.720947 13.4235Z" fill="#3C4852"/>
<path d="M13.9766 27.8208C13.4519 27.752 12.9216 27.6938 12.3969 27.6091C11.0106 27.3867 9.69052 26.9527 8.44227 26.3387C8.00041 26.1216 7.83471 25.6664 8.03355 25.2694C8.23791 24.8618 8.735 24.7083 9.18791 24.9253C10.4969 25.5605 11.8722 25.9787 13.3303 26.1375C16.4455 26.4816 19.3176 25.8358 21.8969 24.1313C24.6585 22.3104 26.4094 19.8066 27.0777 16.657C27.7626 13.4334 27.133 10.4214 25.2551 7.65829C25.2274 7.62123 25.2053 7.58418 25.1777 7.55242C25.1722 7.54713 25.1612 7.54712 25.0949 7.51536C25.0949 7.79062 25.1059 8.0447 25.0949 8.29879C25.0783 8.61639 24.9071 8.8493 24.6033 8.97634C24.3106 9.09809 24.0234 9.06103 23.7693 8.87047C23.5484 8.71167 23.4489 8.48405 23.4489 8.22468C23.4434 7.2454 23.4379 6.26612 23.4489 5.28685C23.4545 4.77868 23.8024 4.46637 24.3271 4.46637C25.3379 4.46108 26.3542 4.46108 27.3649 4.46637C27.862 4.46637 28.221 4.79986 28.2266 5.24979C28.2321 5.68915 27.8731 6.03851 27.3815 6.05439C27.1771 6.05968 26.9783 6.05439 26.7739 6.05439C26.5751 6.05439 26.3707 6.05439 26.1112 6.05439C26.205 6.18672 26.2769 6.282 26.3487 6.37729C27.8786 8.42583 28.7513 10.702 28.9556 13.2163C28.9612 13.301 28.9888 13.3857 28.9998 13.4704C28.9998 14.0156 28.9998 14.5662 28.9998 15.1114C28.9832 15.1802 28.9667 15.249 28.9556 15.3178C28.8617 15.9424 28.801 16.5776 28.6629 17.197C27.5306 22.4533 22.8414 26.7515 17.3237 27.6091C16.799 27.6885 16.2687 27.7467 15.744 27.8155C15.153 27.8208 14.5676 27.8208 13.9766 27.8208Z" fill="#3C4852"/>
<path d="M17.898 10.8291C18.373 10.8291 18.8039 10.8238 19.2347 10.8291C20.3725 10.8397 21.2065 11.6337 21.212 12.7189C21.2175 14.8098 21.2175 16.9007 21.212 18.9915C21.212 20.082 20.3725 20.8813 19.2402 20.8866C16.3239 20.8919 13.4021 20.8919 10.4858 20.8866C9.35356 20.8866 8.51403 20.082 8.51403 18.9915C8.50851 16.9007 8.50851 14.8098 8.51403 12.7189C8.51403 11.6337 9.35909 10.8344 10.4914 10.8291C10.9222 10.8238 11.353 10.8291 11.828 10.8291C11.828 10.3898 11.828 9.96102 11.828 9.53225C11.828 9.12466 11.944 8.74883 12.198 8.42064C12.5736 7.93365 13.0762 7.66898 13.7059 7.65839C14.4791 7.64251 15.2524 7.64251 16.0257 7.65839C17.0475 7.67427 17.8759 8.47358 17.898 9.45285C17.9036 9.90279 17.898 10.3474 17.898 10.8291ZM13.4794 15.6038C13.4794 15.8684 13.485 16.1066 13.4794 16.3448C13.4739 16.8318 13.1149 17.1865 12.6399 17.1812C12.1759 17.1759 11.828 16.8265 11.8225 16.3554C11.8169 16.1119 11.8225 15.8684 11.8225 15.6673C11.2536 15.5614 10.7178 15.4608 10.1765 15.3603C10.1821 15.3391 10.171 15.3656 10.171 15.3867C10.171 16.5883 10.171 17.7846 10.171 18.9862C10.171 19.2456 10.3312 19.3091 10.5687 19.3091C13.4297 19.3091 16.2908 19.3091 19.1573 19.3091C19.4777 19.3091 19.5605 19.2297 19.5605 18.9121C19.5605 17.9434 19.5605 16.9695 19.5605 16.0008C19.5605 15.7732 19.5605 15.5508 19.5605 15.3603C19.0027 15.4608 18.4725 15.5614 17.9036 15.6673C17.9036 15.8684 17.9091 16.1172 17.9036 16.3607C17.8925 16.8318 17.5446 17.1812 17.0861 17.1865C16.6111 17.1918 16.2576 16.8371 16.2521 16.3501C16.2466 16.1066 16.2521 15.8631 16.2521 15.6091C15.3076 15.6038 14.4129 15.6038 13.4794 15.6038ZM14.8879 12.4172C13.4629 12.4172 12.0379 12.4172 10.6129 12.4172C10.2152 12.4172 10.1047 12.5442 10.1876 12.9253C10.3257 13.5552 10.8614 13.9999 11.5353 14.0052C13.7501 14.0105 15.9649 14.0105 18.1797 14.0052C18.8646 14.0052 19.4059 13.5446 19.5329 12.9041C19.6047 12.5442 19.4943 12.4224 19.1076 12.4224C17.7047 12.4172 16.2963 12.4172 14.8879 12.4172ZM16.2411 10.8185C16.2411 10.3792 16.2411 9.96631 16.2411 9.55343C16.2411 9.35228 16.1306 9.24112 15.9207 9.24112C15.2137 9.24112 14.5068 9.23053 13.7998 9.2517C13.6948 9.257 13.5071 9.39463 13.5015 9.47932C13.4684 9.92396 13.485 10.3686 13.485 10.8185C14.4129 10.8185 15.3132 10.8185 16.2411 10.8185Z" fill="#3C4852"/>
</svg>
