<svg width="48" height="48" viewBox="0 0 48 48" fill="none" xmlns="http://www.w3.org/2000/svg">
<path d="M48 23.4421C48 24.6892 48 25.9457 48 27.1928C47.7002 27.7742 47.2974 28.2243 46.5761 28.2243C44.7025 28.2243 42.8289 28.2336 40.9553 28.2149C40.1684 28.2055 39.5876 27.6241 39.5689 26.8459C39.5502 25.8144 39.5221 24.783 39.5876 23.7515C39.6907 22.1293 40.5057 20.9291 41.9764 20.2071C42.3043 20.0477 42.3886 19.8789 42.3793 19.5413C42.3699 16.1844 42.3699 12.8275 42.3699 9.46122C42.3699 9.31119 42.3605 9.16116 42.3512 8.983C40.4307 9.52686 38.5478 10.0707 36.6555 10.6052C36.6555 11.4585 36.6649 12.2743 36.6555 13.0807C36.5993 15.8 36.6648 18.5192 36.44 21.2291C36.1777 24.5017 34.9786 27.4741 32.7865 29.9777C32.7303 30.0434 32.6929 30.1184 32.6273 30.2122C32.8146 30.2778 32.9552 30.334 33.1051 30.3809C35.8405 31.3467 38.5759 32.2938 41.302 33.2784C44.5807 34.4692 46.7166 36.7478 47.6628 40.1141C47.8126 40.6392 47.8876 41.1737 48 41.7081C48 43.4616 48 45.2057 48 46.9592C47.6253 47.775 46.9789 48 46.1077 48C33.3861 47.9812 20.6645 47.9906 7.94289 47.9906C5.81638 47.9906 3.69923 47.9906 1.57272 47.9906C0.598462 47.9906 0.0363881 47.4186 0.0270202 46.4434C0.0176523 45.0651 -0.038555 43.6867 0.045756 42.3176C0.279953 38.1449 2.29405 35.1256 6.13489 33.4847C8.48623 32.4813 10.9312 31.7124 13.3294 30.8404C13.9102 30.6247 14.491 30.4184 15.1093 30.1934C15.0156 30.0809 14.9688 30.0059 14.9032 29.9402C12.4488 27.3522 11.3341 24.2579 11.3528 20.704C11.3715 17.4972 11.3528 14.2997 11.3528 11.0928C11.3528 10.924 11.3528 10.7646 11.3528 10.6052C11.2029 10.5583 11.0999 10.5208 10.9875 10.4927C8.71106 9.8363 6.43466 9.17992 4.15826 8.53292C3.61492 8.38289 3.184 8.10158 3.00601 7.54835C2.73434 6.71381 3.184 5.9918 4.177 5.70111C9.55417 4.15394 14.9126 2.59738 20.2617 1.03145C21.3952 0.703262 22.5193 0.346943 23.6435 0C23.8964 0 24.14 0 24.3929 0C24.5615 0.0656378 24.7302 0.140652 24.9081 0.196913C31.1846 2.01602 37.4705 3.83512 43.747 5.65423C44.8992 5.9918 45.1896 6.37625 45.1896 7.60461C45.1896 11.5991 45.1896 15.5937 45.1803 19.5976C45.1803 19.9258 45.2739 20.0852 45.5737 20.2258C45.9203 20.3852 46.2482 20.6103 46.548 20.8541C47.3817 21.5105 47.7658 22.4388 48 23.4421ZM22.613 45.1776C22.613 43.9773 22.6224 42.824 22.6036 41.6706C22.6036 41.5112 22.4631 41.3331 22.3507 41.2112C19.8495 38.6982 17.3483 36.1946 14.847 33.6816C14.6409 33.4753 14.4817 33.4284 14.2006 33.5316C12.0086 34.338 9.8071 35.1162 7.61501 35.9226C6.45339 36.3446 5.4604 37.0104 4.62666 37.9387C2.73434 40.0391 2.76244 42.5896 2.90296 45.1776C9.46049 45.1776 16.0086 45.1776 22.613 45.1776ZM45.1709 45.1776C45.1709 44.193 45.2365 43.2178 45.1615 42.2614C44.9367 39.3827 43.5128 37.2635 40.8336 36.1664C38.5291 35.2288 36.1496 34.4786 33.8076 33.6253C33.4891 33.5128 33.3111 33.5691 33.0863 33.8035C31.1003 35.8101 29.0956 37.8074 27.1002 39.8046C26.5475 40.3579 25.7887 40.8267 25.5171 41.4925C25.236 42.177 25.4327 43.0584 25.4327 43.8554C25.4327 44.3055 25.4327 44.7462 25.4327 45.1776C32.0558 45.1776 38.604 45.1776 45.1709 45.1776ZM14.1819 17.7503C14.1819 18.9318 14.1725 20.0477 14.1819 21.1541C14.2287 26.0863 17.6106 30.1278 22.4725 30.8967C26.1541 31.478 29.1705 30.2403 31.3814 27.2022C32.8709 25.1487 33.5172 22.7857 33.7514 20.3008C33.8264 19.4757 33.8357 18.6411 33.8826 17.7503C27.2782 20.2446 20.7582 20.2446 14.1819 17.7503ZM38.5759 7.11702C38.4166 7.05138 38.3323 7.02325 38.248 6.99512C33.5922 5.64485 28.9457 4.29459 24.2805 2.96308C24.0838 2.90682 23.8496 2.93495 23.6435 2.99121C20.1305 4.00391 16.5988 5.03536 13.0671 6.05743C11.9149 6.395 10.7533 6.73256 9.49796 7.09826C9.67595 7.17328 9.74152 7.20141 9.81647 7.22016C14.4629 8.55167 19.1 9.88318 23.7465 11.1959C23.9526 11.2522 24.2149 11.2241 24.421 11.1584C28.9832 9.8738 33.536 8.5798 38.0888 7.2858C38.2293 7.24829 38.3604 7.19203 38.5759 7.11702ZM14.1819 11.4022C14.1819 12.4055 14.2006 13.3339 14.1725 14.2715C14.1632 14.5997 14.285 14.7216 14.566 14.8435C18.641 16.597 22.8753 17.1596 27.2501 16.5782C29.4235 16.2876 31.5219 15.6968 33.5266 14.806C33.6484 14.7498 33.8357 14.6279 33.8357 14.5247C33.8545 13.5026 33.8451 12.4806 33.8451 11.421C33.714 11.4585 33.639 11.4679 33.5641 11.496C30.6132 12.3305 27.6623 13.1838 24.7021 13.9996C24.2711 14.1121 23.7653 14.1028 23.3343 13.9996C22.2102 13.7277 21.1141 13.3807 20.0087 13.0619C18.0977 12.5181 16.1866 11.9742 14.1819 11.4022ZM24.0369 38.7544C26.1166 36.6728 28.2337 34.563 30.3415 32.4438C30.1073 32.3782 29.8263 32.3688 29.6202 32.472C27.9902 33.3346 26.2571 33.7753 24.421 33.841C22.2102 33.916 20.1212 33.4284 18.1539 32.4063C17.9853 32.3219 17.7885 32.3032 17.5262 32.2375C19.7652 34.4692 21.9104 36.6165 24.0369 38.7544ZM45.1896 25.3925C45.1896 24.9799 45.1896 24.6142 45.1896 24.2391C45.1896 24.1172 45.1896 23.9859 45.1803 23.864C45.096 23.142 44.5058 22.6075 43.7938 22.5982C43.1006 22.5982 42.4729 23.1045 42.4074 23.7984C42.3512 24.3141 42.398 24.8486 42.398 25.3831C43.3348 25.3925 44.2341 25.3925 45.1896 25.3925Z" fill="white"/>
</svg>
