<svg width="48" height="48" viewBox="0 0 48 48" fill="none" xmlns="http://www.w3.org/2000/svg">
<path d="M44.8129 0C45.3379 0.290514 45.4786 0.740343 45.4786 1.33074C45.4598 4.17029 45.4692 7.0192 45.4692 9.85875C45.4692 9.9712 45.4692 10.0743 45.4692 10.1867C45.4504 10.5991 45.2723 10.9083 44.8879 11.077C44.4942 11.2457 44.1473 11.1426 43.8567 10.8615C43.341 10.3648 42.8348 9.85875 42.3285 9.34332C42.2067 9.22149 42.1317 9.06218 42.0192 8.89349C41.2692 9.69943 40.6316 10.4023 39.966 11.0864C34.2941 16.9717 27.8722 21.9292 20.719 25.9214C15.3752 28.9015 9.75018 31.235 3.88139 32.9874C3.25326 33.1749 2.75638 32.9593 2.58763 32.4252C2.4095 31.8816 2.70013 31.4318 3.35638 31.1975C6.2439 30.1666 9.18768 29.2389 12.0189 28.0581C19.5846 24.9186 26.4659 20.6359 32.7097 15.3317C35.6441 12.8389 38.3816 10.1493 40.9316 7.27223C41.6535 6.45692 42.0942 6.44755 42.8723 7.22537C43.0785 7.43155 43.266 7.66583 43.5567 7.99383C43.5567 5.87589 43.5567 3.90789 43.5567 1.9024C41.5973 1.9024 39.6191 1.9024 37.4816 1.9024C37.9316 2.33349 38.3066 2.67086 38.6629 3.02697C39.3566 3.72046 39.3191 4.264 38.5504 4.84503C29.2784 11.808 19.0877 16.9061 7.92204 20.0736C7.30329 20.2517 6.90953 20.1673 6.65641 19.7925C6.30953 19.3052 6.46891 18.6679 7.03141 18.4242C7.44391 18.2462 7.88454 18.1337 8.32517 18.0119C18.544 15.0037 27.9378 10.3273 36.5254 4.02034C36.6004 3.96412 36.666 3.90789 36.816 3.79543C36.3004 3.28937 35.8035 2.81143 35.316 2.32412C35.1472 2.15543 34.9879 1.99612 34.8191 1.82743C34.1066 1.10583 34.1535 0.5904 34.9785 0.00937143C38.2504 0 41.5317 0 44.8129 0Z" fill="white"/>
<path d="M33.5626 47.9818C33.1501 47.7944 32.7094 47.6632 32.3438 47.4102C31.5 46.8291 31.125 45.9763 31.125 44.9548C31.125 42.5183 31.0875 40.0817 31.1344 37.6451C31.1813 34.918 32.3813 32.7907 34.7063 31.3475C34.9876 31.1695 35.0438 31.0289 34.9501 30.7196C34.5938 29.5576 34.2563 28.3862 33.9188 27.2241C33.6938 26.4275 34.0876 25.884 34.9126 25.884C38.0063 25.8746 41.1001 25.8746 44.1939 25.884C45.047 25.884 45.4314 26.4275 45.197 27.2522C45.0095 27.8988 44.822 28.5361 44.6345 29.1827C44.447 29.8106 44.2689 30.4385 44.0814 31.0945C44.4376 31.3382 44.8033 31.5724 45.1408 31.8348C46.7158 33.0625 47.6345 34.6744 47.9252 36.6518C47.9345 36.7455 47.972 36.8298 48.0002 36.9235C48.0002 39.8006 48.0002 42.6682 48.0002 45.5452C47.9064 45.8076 47.822 46.07 47.7001 46.3231C47.2689 47.2415 46.4908 47.71 45.5626 47.9818C41.5595 47.9818 37.5657 47.9818 33.5626 47.9818ZM39.5345 46.1075C41.3157 46.1075 43.097 46.1075 44.8783 46.1075C45.722 46.1075 46.1251 45.7045 46.1251 44.8705C46.1345 42.4714 46.1345 40.063 46.1251 37.6639C46.1158 35.9958 45.4783 34.5994 44.222 33.4936C43.5564 32.9126 42.8251 32.5283 41.8595 32.5752C40.1626 32.6502 38.4563 32.5846 36.7501 32.6033C36.5063 32.6033 36.2438 32.6502 36.0376 32.7626C34.0407 33.8028 33.0376 35.4803 33.0001 37.7107C32.9719 40.063 32.9907 42.4245 32.9907 44.7768C32.9907 45.7327 33.3657 46.1075 34.3313 46.1075C36.0751 46.1075 37.8095 46.1075 39.5345 46.1075ZM43.0876 27.7958C40.697 27.7958 38.4001 27.7958 36.0282 27.7958C36.3094 28.7516 36.572 29.6607 36.8532 30.5603C36.8813 30.6447 37.0688 30.7103 37.1907 30.7103C38.7657 30.7196 40.3407 30.7196 41.9157 30.7103C42.0376 30.7103 42.2345 30.6072 42.2626 30.5135C42.5626 29.6326 42.8157 28.7329 43.0876 27.7958Z" fill="white"/>
<path d="M17.7191 47.9812C16.7722 47.7282 15.9566 47.2877 15.4503 46.3975C14.7659 45.1885 14.8784 43.8578 15.7503 42.7707C15.7972 42.7145 15.8441 42.6489 15.9003 42.5645C14.7097 41.0745 14.6722 39.5657 15.8253 38.1412C15.5534 37.5414 15.2159 37.0166 15.0847 36.445C14.6441 34.5426 16.0316 32.7058 18.0191 32.6495C20.3722 32.5746 22.7347 32.5933 25.0973 32.6495C26.391 32.6777 27.3473 33.3805 27.8535 34.5801C28.3504 35.7609 28.1535 36.8667 27.3473 37.8694C27.3098 37.9163 27.2723 37.9725 27.216 38.0475C28.3973 39.5376 28.4442 41.037 27.216 42.5645C27.2629 42.6395 27.3098 42.7145 27.366 42.7895C28.8285 44.6169 28.0317 47.194 25.791 47.8688C25.6598 47.9063 25.5285 47.9531 25.3973 48C22.8472 47.9812 20.2785 47.9812 17.7191 47.9812ZM21.5629 46.1069C22.641 46.1069 23.7191 46.1069 24.7973 46.1069C25.6598 46.1069 26.2504 45.5634 26.2504 44.7949C26.2504 44.0265 25.6598 43.4923 24.7973 43.4829C22.641 43.4829 20.4941 43.4736 18.3378 43.4829C17.4753 43.4829 16.8847 44.0265 16.8847 44.7949C16.8847 45.5634 17.4753 46.0976 18.3378 46.1069C19.416 46.1069 20.4847 46.1069 21.5629 46.1069ZM21.5629 41.6086C22.641 41.6086 23.7191 41.6086 24.7973 41.6086C25.6598 41.6086 26.2504 41.0651 26.2504 40.2966C26.2504 39.5282 25.6598 38.9846 24.7973 38.9846C22.641 38.9846 20.4941 38.9846 18.3378 38.9846C17.4753 38.9846 16.8847 39.5282 16.8847 40.2966C16.8847 41.0651 17.4753 41.5993 18.3378 41.6086C19.4066 41.6086 20.4847 41.6086 21.5629 41.6086ZM21.5441 37.1104C22.641 37.1104 23.7285 37.1197 24.8254 37.1104C25.6598 37.101 26.241 36.5668 26.2504 35.8171C26.2598 35.0486 25.6691 34.4957 24.816 34.4864C22.6504 34.477 20.4753 34.477 18.3097 34.4864C17.4753 34.4864 16.8941 35.0299 16.8847 35.7796C16.8753 36.5481 17.466 37.101 18.3191 37.1104C19.3878 37.1197 20.466 37.1104 21.5441 37.1104Z" fill="white"/>
<path d="M0 39.8285C0.271877 38.8164 0.750005 37.9167 1.76251 37.4857C2.26877 37.2701 2.84064 37.1389 3.3844 37.1295C5.49379 37.0921 7.60318 37.1202 9.71257 37.1108C11.1188 37.1108 12.2157 37.6731 12.8157 38.9663C13.3876 40.194 13.1907 41.3654 12.3095 42.415C12.2813 42.4525 12.2626 42.4994 12.2532 42.5181C12.4782 42.9211 12.7595 43.2866 12.9188 43.6989C13.5657 45.4608 12.6188 47.3069 10.8095 47.8505C10.6782 47.888 10.5469 47.9348 10.4157 47.9817C7.85631 47.9817 5.28754 47.9817 2.72814 47.9817C2.42814 47.8692 2.10939 47.7849 1.81876 47.6537C0.787506 47.1757 0.271877 46.3042 0 45.264C0 44.9547 0 44.6361 0 44.3268C0.271877 43.7177 0.534379 43.1179 0.787506 42.5462C0.534379 41.9746 0.271877 41.3748 0 40.7657C0 40.4564 0 40.1378 0 39.8285ZM6.52505 46.1074C7.60318 46.1074 8.68131 46.1074 9.75944 46.1074C10.6595 46.1074 11.2595 45.5638 11.2501 44.786C11.2407 44.0176 10.6501 43.4834 9.78757 43.4834C7.6313 43.4834 5.48441 43.474 3.32815 43.4834C2.47502 43.4834 1.87501 44.0363 1.88439 44.8048C1.89376 45.5732 2.48439 46.098 3.3469 46.1074C4.40628 46.1074 5.46566 46.1074 6.52505 46.1074ZM6.56255 41.6091C7.64068 41.6091 8.71881 41.6091 9.79694 41.6091C10.6595 41.6091 11.2501 41.0655 11.2501 40.2971C11.2501 39.5286 10.6595 38.9945 9.79694 38.9851C7.64068 38.9851 5.49379 38.9851 3.33752 38.9851C2.47502 38.9851 1.88439 39.5286 1.88439 40.2971C1.88439 41.0655 2.47502 41.5997 3.33752 41.6091C4.40628 41.6091 5.48441 41.6091 6.56255 41.6091Z" fill="white"/>
<path d="M3.50603 19.3333C3.99353 19.3615 4.42478 19.8208 4.39666 20.299C4.37791 20.8052 3.93728 21.199 3.43102 21.1802C2.93415 21.1615 2.51227 20.7208 2.54039 20.224C2.55914 19.7365 3.0279 19.3052 3.50603 19.3333Z" fill="white"/>
<path d="M40.3978 36.8674C40.6322 37.1298 40.8009 37.4671 40.8665 37.8889H42.1603V38.6854H40.8572C40.6884 39.8006 39.7978 40.4379 38.6821 40.5222C39.4603 41.3188 40.3697 42.3965 41.2322 43.4836H39.3853C38.7478 42.6964 37.8478 41.6281 36.9478 40.6722V39.5101H37.6415C38.5978 39.5101 39.0853 39.1821 39.2165 38.6854H36.9478V37.8889H39.1884C39.0103 37.5046 38.579 37.261 37.8196 37.261H36.9665V36.0708H42.179V36.8674H40.3978Z" fill="white"/>
</svg>
