<svg width="29" height="29" viewBox="0 0 29 29" fill="none" xmlns="http://www.w3.org/2000/svg">
<g clip-path="url(#clip0_244_139)">
<path d="M28.7201 4.8212C28.7201 12.8807 28.7201 20.9401 28.7201 28.9996C19.3316 28.9996 9.94856 28.9996 0.560059 28.9996C0.560059 20.9461 0.560059 12.8927 0.560059 4.81519C3.49156 4.81519 6.38456 4.81519 9.28306 4.81519C9.29406 4.75504 9.30506 4.71896 9.31056 4.68287C9.62956 2.61388 11.0101 1.09822 12.9186 0.911766C14.0736 0.79749 15.2451 0.827563 16.4056 0.911766C17.6706 1.00198 18.6386 1.74177 19.3481 2.87851C19.7111 3.45591 19.9091 4.10548 20.0026 4.8212C22.9121 4.8212 25.8161 4.8212 28.7201 4.8212ZM27.0481 27.1712C27.0481 22.8106 27.0481 18.4922 27.0481 14.1197C26.9601 14.2219 26.8996 14.2941 26.8391 14.3602C25.5576 15.8398 24.0066 16.736 22.1366 16.8502C20.7726 16.9284 19.4086 16.8863 18.0391 16.8984C17.9346 16.8984 17.8301 16.8984 17.7256 16.8984C17.7641 19.0876 16.3231 20.2424 14.9041 20.3387C13.2046 20.4529 11.5161 19.3162 11.5381 16.8984C11.4391 16.8984 11.3401 16.8984 11.2411 16.8984C10.0971 16.8984 8.94756 16.9044 7.80356 16.8984C5.64206 16.8863 3.82706 16.0202 2.36956 14.276C2.33106 14.2279 2.28156 14.1978 2.23206 14.1497C2.23206 18.5042 2.23206 22.8287 2.23206 27.1772C10.5096 27.1712 18.7706 27.1712 27.0481 27.1712ZM2.21556 6.6436C2.21556 7.07063 2.20456 7.46158 2.21556 7.85252C2.23756 8.59231 2.18806 9.34412 2.30356 10.0719C2.78756 13.0611 4.97106 15.0699 7.76506 15.082C12.3466 15.106 16.9281 15.106 21.5096 15.082C24.3091 15.0639 26.5091 13.0611 26.9601 10.0659C27.1196 9.03137 27.0316 7.94875 27.0591 6.8902C27.0591 6.81201 27.0481 6.73382 27.0426 6.64962C18.7706 6.6436 10.5096 6.6436 2.21556 6.6436ZM10.9936 4.80918C13.4246 4.80918 15.8556 4.80918 18.2866 4.80918C18.1766 3.79874 17.3131 2.84844 16.3396 2.72815C15.8226 2.66199 15.3001 2.67402 14.7776 2.67402C14.1726 2.67402 13.5676 2.65598 12.9681 2.72214C11.9781 2.83641 11.0981 3.79874 10.9936 4.80918ZM16.0316 16.9284C15.0856 16.9284 14.1561 16.9284 13.2321 16.9284C13.1771 17.9268 13.6666 18.5042 14.5411 18.5103C14.6401 18.5103 14.7446 18.5103 14.8436 18.5103C15.6411 18.4802 16.1471 17.8126 16.0316 16.9284Z" fill="#3C4852"/>
<path d="M17.7917 22.5884C17.7917 23.1898 17.7917 23.7672 17.7917 24.3566C15.6852 24.3566 13.5952 24.3566 11.4832 24.3566C11.4832 23.7612 11.4832 23.1838 11.4832 22.5884C13.5842 22.5884 15.6797 22.5884 17.7917 22.5884Z" fill="#3C4852"/>
</g>
<defs>
<clipPath id="clip0_244_139">
<rect width="28.16" height="28.16" fill="white" transform="translate(0.560059 0.839844)"/>
</clipPath>
</defs>
</svg>
