<svg width="28" height="28" viewBox="0 0 28 28" fill="none" xmlns="http://www.w3.org/2000/svg">
<path d="M26.9347 3.03452C25.6317 3.05933 24.3286 3.0446 23.0256 3.03995C22.8827 3.03917 22.734 3.01513 22.5991 2.96782C19.888 2.01086 17.177 1.05313 14.471 0.0822103C14.1291 -0.0403179 13.8235 -0.020155 13.4918 0.1047C10.9441 1.06088 8.39417 2.00776 5.84281 2.95154C5.69187 3.00738 5.5249 3.03839 5.36521 3.03917C3.88865 3.04537 2.41281 3.04227 0.93625 3.04305C0.314271 3.04382 0 3.38039 0 4.04731V23.468C0 24.1621 0.317917 24.4971 0.976354 24.4971C3.28198 24.4979 5.5876 24.4971 7.89323 24.4971H8.22646V26.2544H7.93406C7.2326 26.2544 6.53042 26.252 5.82896 26.2559C5.31854 26.2582 4.95031 26.6181 4.94156 27.1128C4.93281 27.6138 5.31198 27.9985 5.83187 27.9985C11.2809 28 16.73 28 22.1791 27.9985C22.6844 27.9977 23.0555 27.6231 23.0577 27.1291C23.0606 26.6351 22.6909 26.259 22.1864 26.2559C21.4849 26.2513 20.7834 26.2544 20.082 26.2544H19.7743V24.5149C19.8822 24.5087 19.9872 24.4979 20.0915 24.4979C22.3789 24.4971 24.6655 24.4901 26.9529 24.5033C27.4582 24.5064 27.8184 24.3311 28 23.8139V3.68981C27.7973 3.19039 27.4393 3.02444 26.9347 3.03452ZM12.5759 2.29857C12.756 2.23188 12.9485 2.19078 13.1155 2.09617C13.712 1.75883 14.28 1.82785 14.9064 2.06748C16.5834 2.70803 18.2824 3.2819 20.0266 3.90074C19.9026 3.9558 19.8253 3.99535 19.7451 4.02405C17.9156 4.67159 16.0876 5.32223 14.2552 5.95813C14.1057 6.01009 13.911 6.00776 13.7623 5.95348C12.0254 5.3199 10.2929 4.67159 8.55896 4.02637C8.48385 3.99846 8.41094 3.96278 8.2724 3.9023C9.74458 3.35325 11.1599 2.82591 12.5759 2.29857ZM18.5442 8.13649C18.5609 8.47461 18.4552 8.61653 18.1592 8.73207C16.8372 9.24855 15.5261 9.79916 14.2078 10.3304C14.1057 10.3715 13.9694 10.4009 13.8746 10.3622C12.4374 9.78442 11.0046 9.19427 9.57177 8.60567C9.53823 8.59171 9.5076 8.57 9.47625 8.55216V6.21947C9.96917 6.40171 10.4387 6.57542 10.9076 6.74914C11.7833 7.07407 12.662 7.38969 13.5333 7.72703C13.8505 7.84956 14.1444 7.84956 14.4616 7.73479C15.7186 7.28035 16.9794 6.83987 18.2394 6.39396C18.3247 6.36449 18.41 6.33735 18.5361 6.2947C18.5361 6.92827 18.5143 7.53394 18.5442 8.13649ZM18.1001 26.2381H9.89479V24.5204H18.1001V26.2381ZM26.3419 22.729H1.64865V4.8073C1.73177 4.80032 1.80979 4.78869 1.88708 4.78869C3.07198 4.78713 4.25687 4.78558 5.44177 4.79024C5.56573 4.79101 5.69552 4.8135 5.81365 4.85538C6.40865 5.06864 6.99854 5.29818 7.59427 5.50757C7.76781 5.56883 7.83052 5.65491 7.82833 5.85809C7.8174 6.9337 7.82396 8.01009 7.82323 9.0857C7.8225 9.5192 7.99604 9.83173 8.3825 9.98993C10.1135 10.7003 11.8468 11.406 13.5771 12.1179C13.8534 12.2311 14.1137 12.2458 14.3967 12.1287C16.1343 11.4106 17.877 10.7034 19.6168 9.9907C20.0025 9.8325 20.1768 9.5192 20.1768 9.08647C20.1768 8.04886 20.1833 7.01203 20.1717 5.97519C20.1688 5.76038 20.2358 5.67197 20.4225 5.61226C20.8826 5.46647 21.3354 5.29819 21.8254 5.1268V5.47267C21.8254 6.9748 21.8218 8.47694 21.8269 9.97907C21.8291 10.5863 22.2841 11.0043 22.8083 10.8973C23.2021 10.8166 23.4639 10.4622 23.4653 9.98838C23.4675 8.36992 23.466 6.75146 23.466 5.13301V4.8042H26.3419V22.729Z" fill="#3C4852"/>
<path d="M17.2972 16.6057C16.2086 16.6065 15.1206 16.6065 14.032 16.6065H20.5755C19.4825 16.6065 18.3902 16.6057 17.2972 16.6057ZM17.2848 20.1102C16.0562 20.1109 14.8275 20.1117 13.5981 20.1117C14.8268 20.1117 16.0562 20.1109 17.2848 20.1109C18.4704 20.1102 19.6561 20.1109 20.841 20.1109C19.6561 20.1109 18.4704 20.1102 17.2848 20.1102Z" fill="white"/>
<path d="M24.7071 15.741C24.7034 16.2256 24.3403 16.6033 23.8547 16.6041C22.7616 16.6064 21.6686 16.6064 20.5756 16.6064H14.0321C12.9441 16.6064 11.8562 16.6064 10.7676 16.6049C10.2003 16.6041 9.82258 16.1621 9.89768 15.6006C9.95018 15.2059 10.2717 14.8957 10.6677 14.8639C10.7493 14.8577 10.8317 14.8615 10.9134 14.8615H23.6724C23.7358 14.8615 23.8 14.86 23.8634 14.8623C24.3425 14.8786 24.7107 15.2625 24.7071 15.741Z" fill="#3C4852"/>
<path d="M24.7079 19.2517C24.6999 19.7472 24.3397 20.1078 23.8198 20.1086C22.8267 20.1109 21.8343 20.1109 20.8411 20.1109C19.6562 20.1109 18.4706 20.1102 17.285 20.1109C16.0564 20.1109 14.827 20.1117 13.5983 20.1117C12.6767 20.1117 11.7543 20.1109 10.8326 20.1102C10.2609 20.1094 9.89927 19.7775 9.89125 19.2587C9.88395 18.8073 10.1771 18.4436 10.608 18.3793C10.7152 18.363 10.826 18.3668 10.9354 18.3668C15.1733 18.3661 19.4112 18.3661 23.6492 18.3661C23.7038 18.3661 23.7585 18.3653 23.8132 18.3661C24.3375 18.3777 24.7152 18.7515 24.7079 19.2517Z" fill="#3C4852"/>
<path d="M8.22799 15.8114C8.22434 15.2058 7.8882 14.8638 7.31653 14.8622C6.28695 14.8591 5.25736 14.8599 4.22705 14.8615C3.62695 14.863 3.29299 15.2135 3.29153 15.8487C3.28861 16.9444 3.28789 18.0394 3.29153 19.1344C3.29372 19.7572 3.61966 20.103 4.20736 20.1092C4.72726 20.1147 5.24643 20.1108 5.76632 20.1108C6.28549 20.1108 6.80539 20.1147 7.32455 20.1092C7.90351 20.103 8.22507 19.7688 8.22872 19.1554C8.23528 18.041 8.23601 16.9258 8.22799 15.8114ZM6.5757 18.3458H4.94966V16.6249H6.5757V18.3458Z" fill="#3C4852"/>
</svg>
